<?xml version="1.0" encoding="UTF-8" standalone="no"?>
<!-- Generator: Adobe Illustrator 19.1.1, SVG Export Plug-In . SVG Version: 6.00 Build 0)  -->

<svg
   version="1.1"
   x="0px"
   y="0px"
   viewBox="0 2 177 150"
   enable-background="new 0 2 48 48"
   xml:space="preserve"
   id="svg1898"
   sodipodi:docname="logo-linux.svg"
   width="177"
   height="150"
   inkscape:version="1.1 (c4e8f9e, 2021-05-24)"
   xmlns:inkscape="http://www.inkscape.org/namespaces/inkscape"
   xmlns:sodipodi="http://sodipodi.sourceforge.net/DTD/sodipodi-0.dtd"
   xmlns="http://www.w3.org/2000/svg"
   xmlns:svg="http://www.w3.org/2000/svg"><defs
   id="defs1902" /><sodipodi:namedview
   id="namedview1900"
   pagecolor="#ffffff"
   bordercolor="#666666"
   borderopacity="1.0"
   inkscape:pageshadow="2"
   inkscape:pageopacity="0.0"
   inkscape:pagecheckerboard="0"
   showgrid="false"
   width="177px"
   inkscape:zoom="3.0136966"
   inkscape:cx="17.420466"
   inkscape:cy="81.959147"
   inkscape:window-width="1920"
   inkscape:window-height="942"
   inkscape:window-x="0"
   inkscape:window-y="25"
   inkscape:window-maximized="1"
   inkscape:current-layer="svg1898" />
<polygon
   fill="#eceff1"
   points="21.5,40.6 27.7,40.6 33.5,36.2 36.1,29.3 30.1,22 28.4,17.9 20.1,18.2 20.2,20.5 18.6,23.5 16.1,28.4 15.6,32.5 17.4,38.3 "
   id="polygon1864"
   transform="matrix(4.1254758,0,0,4.1254758,-15.82292,-30.379016)" />
<path
   fill="#263238"
   d="m 125.6809,68.219854 c -6.60076,-9.488595 -11.96388,-15.26426 -14.85171,-27.22814 -2.88784,-11.96388 0.82509,-8.6635 -1.65019,-18.977188 -1.23765,-5.363118 -3.30038,-9.076047 -5.36313,-11.96388 C 101.34059,7.1628131 98.452758,5.512623 96.802568,5.1000749 93.08964,3.0373368 84.42614,-0.26304331 73.699904,5.512623 62.561119,11.288289 63.798762,23.664716 65.8615,48.830117 c 0,1.650192 -0.412548,3.712929 -1.237643,5.363119 -1.65019,3.712928 -4.538023,7.013309 -7.013308,9.901142 -2.887834,4.125476 -5.775667,8.250952 -7.838405,12.788975 -4.95057,9.488594 -9.488593,21.452473 -8.250951,25.990497 2.062738,-0.41255 28.053235,39.19202 28.053235,40.01712 1.65019,-0.41255 8.663499,-0.41255 14.851712,-0.41255 8.6635,-0.41255 13.61407,-0.82509 20.62738,0.8251 0,-1.23765 -0.41255,-2.47529 -0.41255,-3.71294 0,-2.47528 0.41255,-4.53801 0.8251,-7.42585 0.41255,-2.06273 0.8251,-4.12548 1.23764,-6.60076 -4.12548,3.71293 -11.551332,7.8384 -18.564642,9.07605 -6.188213,1.23764 -16.501903,-0.8251 -21.452473,-7.01332 0.412547,0 1.237642,0 1.65019,-0.41254 1.237643,-0.41254 2.475285,-0.82509 2.887833,-1.65019 1.237642,-2.06274 0.412547,-4.12547 -0.412548,-5.36312 -0.825095,-1.23764 -7.013308,-5.77567 -9.901141,-8.25095 -2.887833,-2.47529 -4.538024,-3.71293 -6.188214,-5.36312 0,0 -2.475285,-2.47529 -3.30038,-3.30038 -0.825096,-0.8251 -1.237643,-1.65019 -1.650191,-2.06274 -0.825095,-2.062738 -1.237642,-4.538024 -0.825095,-7.838405 0.412548,-4.538023 2.062738,-8.25095 4.125476,-12.376427 0.825095,-1.65019 2.887834,-4.950571 2.887834,-4.950571 0,0 -7.01331,17.326998 -3.300382,22.690118 0,0 0.412548,-5.36312 2.062738,-10.726238 1.237644,-3.712928 3.300381,-9.076047 5.775667,-11.96388 2.475285,-2.887832 8.663498,-13.61407 9.076046,-20.21483 0,-2.887833 0.412547,-5.775666 0.412547,-7.838405 -1.65019,-1.65019 27.22814,-5.775665 28.87833,-1.237642 0.412548,1.65019 6.188215,16.501903 9.488595,24.340307 1.65019,3.712928 3.71294,7.013308 4.95057,11.138785 1.23765,4.538023 2.06274,10.726236 2.06274,16.91445 0,1.237638 0,3.300378 -0.41254,5.363118 0.82509,0 16.91445,-17.326998 -2.06275,-31.766163 0,0 11.55134,5.363118 11.96389,16.089355 0.41255,8.663499 -3.30039,15.676808 -4.12547,16.914448 0.41253,0 8.6635,3.71293 9.07605,3.71293 1.65018,0 4.95056,-1.23764 4.95056,-1.23764 0.41255,-1.23764 1.65019,-4.53803 1.65019,-5.77567 2.88783,-9.488592 -4.12547,-24.752852 -10.72624,-34.241446 z"
   id="path1866"
   style="stroke-width:4.12548" />
<g
   id="g1872"
   transform="matrix(4.1254758,0,0,4.1254758,-15.82292,-30.379016)">
	<ellipse
   fill="#eceff1"
   cx="21.6"
   cy="15.3"
   rx="1.3"
   ry="2"
   id="ellipse1868" />
	<ellipse
   fill="#eceff1"
   cx="26.1"
   cy="15.2"
   rx="1.7"
   ry="2.3"
   id="ellipse1870" />
</g>
<g
   id="g1878"
   transform="matrix(4.1254758,0,0,4.1254758,-15.82292,-30.379016)">
	
		<ellipse
   transform="matrix(-0.1254,-0.9921,0.9921,-0.1254,8.9754,38.9969)"
   fill="#212121"
   cx="21.700001"
   cy="15.5"
   rx="1.2"
   ry="0.69999999"
   id="ellipse1874" />
	<ellipse
   fill="#212121"
   cx="26"
   cy="15.6"
   rx="1"
   ry="1.3"
   id="ellipse1876" />
</g>
<g
   id="g1886"
   transform="matrix(4.1254758,0,0,4.1254758,-15.82292,-30.379016)">
	<path
   fill="#ffc107"
   d="m 39.3,37.6 c -0.4,-0.2 -1.1,-0.5 -1.7,-1.4 -0.3,-0.5 -0.2,-1.9 -0.7,-2.5 -0.3,-0.4 -0.7,-0.2 -0.8,-0.2 -0.9,0.2 -3,1.6 -4.4,0 -0.2,-0.2 -0.5,-0.5 -1,-0.5 -0.5,0 -0.7,0.2 -0.9,0.6 -0.2,0.4 -0.2,0.7 -0.2,1.7 0,0.8 0,1.7 -0.1,2.4 -0.2,1.7 -0.5,2.7 -0.5,3.7 0,1.1 0.3,1.8 0.7,2.1 0.3,0.3 0.8,0.5 1.9,0.5 1.1,0 1.8,-0.4 2.5,-1.1 0.5,-0.5 0.9,-0.7 2.3,-1.7 1.1,-0.7 2.8,-1.6 3.1,-1.9 0.2,-0.2 0.5,-0.3 0.5,-0.9 0,-0.5 -0.4,-0.7 -0.7,-0.8 z"
   id="path1880" />
	<path
   fill="#ffc107"
   d="m 19.2,37.9 c -1,-1.6 -1.1,-1.9 -1.8,-2.9 -0.6,-1 -1.9,-2.9 -2.7,-2.9 -0.6,0 -0.9,0.3 -1.3,0.7 -0.4,0.4 -0.8,1.3 -1.5,1.8 -0.6,0.5 -2.3,0.4 -2.7,1 -0.4,0.6 0.4,1.5 0.4,3 0,0.6 -0.5,1 -0.6,1.4 -0.1,0.5 -0.2,0.8 0,1.2 0.4,0.6 0.9,0.8 4.3,1.5 1.8,0.4 3.5,1.4 4.6,1.5 1.1,0.1 3,0 3,-2.7 0.1,-1.6 -0.8,-2 -1.7,-3.6 z"
   id="path1882" />
	<path
   fill="#ffc107"
   d="M 21.1,19.8 C 20.5,19.4 20,19 20,18.4 c 0,-0.6 0.4,-0.8 1,-1.3 0.1,-0.1 1.2,-1.1 2.3,-1.1 1.1,0 2.4,0.7 2.9,0.9 0.9,0.2 1.8,0.4 1.7,1.1 -0.1,1 -0.2,1.2 -1.2,1.7 -0.7,0.2 -2,1.3 -2.9,1.3 -0.4,0 -1,0 -1.4,-0.1 -0.3,-0.1 -0.8,-0.6 -1.3,-1.1 z"
   id="path1884" />
</g>
<g
   id="g1894"
   transform="matrix(4.1254758,0,0,4.1254758,-15.82292,-30.379016)">
	<path
   fill="#634703"
   d="m 20.9,19 c 0.2,0.2 0.5,0.4 0.8,0.5 0.2,0.1 0.5,0.2 0.5,0.2 0.4,0 0.7,0 0.9,0 0.5,0 1.2,-0.2 1.9,-0.6 0.7,-0.3 0.8,-0.5 1.3,-0.7 0.5,-0.3 1,-0.6 0.8,-0.7 -0.2,-0.1 -0.4,0 -1.1,0.4 -0.6,0.4 -1.1,0.6 -1.7,0.9 -0.3,0.1 -0.7,0.3 -1,0.3 -0.3,0 -0.6,0 -0.9,0 -0.3,0 -0.5,-0.1 -0.8,-0.2 -0.2,-0.1 -0.3,-0.2 -0.4,-0.2 -0.2,-0.1 -0.6,-0.5 -0.8,-0.6 0,0 -0.2,0 -0.1,0.1 0.3,0.3 0.4,0.4 0.6,0.6 z"
   id="path1888" />
	<path
   fill="#634703"
   d="m 23.9,16.8 c 0.1,0.2 0.3,0.2 0.4,0.3 0.1,0.1 0.2,0.1 0.2,0.1 0.1,-0.1 0,-0.3 -0.1,-0.3 0,-0.2 -0.5,-0.2 -0.5,-0.1 z"
   id="path1890" />
	<path
   fill="#634703"
   d="m 22.3,17 c 0,0.1 0.2,0.2 0.2,0.1 0.1,-0.1 0.2,-0.2 0.3,-0.2 0.2,-0.1 0.1,-0.2 -0.2,-0.2 -0.2,0.1 -0.2,0.2 -0.3,0.3 z"
   id="path1892" />
</g>
<path
   fill="#455a64"
   d="m 116.19231,112.775 c 0,0.41255 0,0.82508 0,1.23763 0.8251,1.6502 2.88783,2.06275 4.53803,2.06275 2.47528,0 4.95056,-1.6502 6.18821,-3.30038 0,-0.41255 0.41255,-0.8251 0.82509,-1.23765 0.8251,-1.23764 1.23765,-2.06274 1.6502,-2.47529 0,0 -0.41255,-0.41254 -0.41255,-0.82509 -0.41255,-0.8251 -1.65019,-1.65019 -3.30039,-2.06274 -1.23764,-0.41255 -3.30038,-0.8251 -4.12548,-0.8251 -3.71292,-0.41254 -5.77566,0.8251 -7.0133,2.06274 0,0 0.41255,0 0.41255,0.41255 0.82509,0.8251 1.23764,1.65019 1.23764,2.88783 0.41255,0.8251 0,1.23765 0,2.06275 z"
   id="path1896"
   style="stroke-width:4.12548" />
</svg>
