<?xml version="1.0" encoding="UTF-8" standalone="no"?>
<svg
   width="177"
   height="150"
   viewBox="0 0 21.942857 18.6"
   preserveAspectRatio="xMidYMid"
   version="1.1"
   id="svg942"
   sodipodi:docname="logo-ec2.svg"
   inkscape:version="1.1 (c4e8f9e, 2021-05-24)"
   xmlns:inkscape="http://www.inkscape.org/namespaces/inkscape"
   xmlns:sodipodi="http://sodipodi.sourceforge.net/DTD/sodipodi-0.dtd"
   xmlns="http://www.w3.org/2000/svg"
   xmlns:svg="http://www.w3.org/2000/svg">
  <defs
     id="defs946" />
  <sodipodi:namedview
     id="namedview944"
     pagecolor="#ffffff"
     bordercolor="#666666"
     borderopacity="1.0"
     inkscape:pageshadow="2"
     inkscape:pageopacity="0.0"
     inkscape:pagecheckerboard="0"
     showgrid="false"
     width="177px"
     inkscape:zoom="1.3504346"
     inkscape:cx="268.80236"
     inkscape:cy="27.398588"
     inkscape:window-width="1920"
     inkscape:window-height="942"
     inkscape:window-x="0"
     inkscape:window-y="25"
     inkscape:window-maximized="1"
     inkscape:current-layer="svg942" />
  <path
     d="m 6.3920879,14.026493 -1.5815412,0.36084 V 4.1448992 l 1.5815412,0.3615269 v 9.5200669"
     fill="#f68536"
     id="path936"
     style="stroke-width:0.0528625" />
  <path
     d="M 8.3653406,14.631029 6.3920879,15.191795 V 3.3544457 L 8.3653406,3.9145243 V 14.631029 M 10.89661,15.252164 8.3653406,16.178527 V 2.3677137 L 10.89661,3.2936538 V 15.252164 m 6.768201,-1.194799 -6.768201,3.3841 V 1.1018675 l 6.768201,3.3841008 v 9.5713967"
     fill="#f68536"
     id="path938"
     style="stroke-width:0.0528625" />
  <path
     d="M 9.5474525,1.776552 10.89661,1.1018675 V 17.441465 L 9.5474525,16.766992 V 1.776552 M 7.3209355,2.8896784 8.3653406,2.3675023 V 16.175831 L 7.3209355,15.653655 V 2.8896784 M 5.5601374,3.7702096 6.3920879,3.3542343 V 15.189099 L 5.5601374,14.772859 V 3.7702096 M 4.8105467,4.1448992 4.1320032,4.4841709 v 9.5752021 l 0.6785435,0.339061 V 4.1448992"
     fill="#9d5025"
     id="path940"
     style="stroke-width:0.0528625" />
</svg>
